<mxfile host="app.diagrams.net" modified="2024-05-01T07:51:58.048Z" agent="Mozilla/5.0 (Windows NT 10.0; Win64; x64) AppleWebKit/537.36 (KHTML, like Gecko) Chrome/122.0.0.0 YaBrowser/24.4.0.0 Safari/537.36" etag="Cpz5hemtz2lRyYARq23L" version="24.2.2" type="device">
  <diagram name="Страница — 1" id="nRwoL0pXbPnDjDQRp2tz">
    <mxGraphModel dx="1698" dy="500" grid="1" gridSize="10" guides="1" tooltips="1" connect="1" arrows="1" fold="1" page="1" pageScale="1" pageWidth="827" pageHeight="1169" math="0" shadow="0">
      <root>
        <mxCell id="0" />
        <mxCell id="1" parent="0" />
        <mxCell id="0Zv-nmKge77KPgvuX9ZF-4" value="" style="edgeStyle=orthogonalEdgeStyle;rounded=0;orthogonalLoop=1;jettySize=auto;html=1;" edge="1" parent="1" source="0Zv-nmKge77KPgvuX9ZF-1" target="0Zv-nmKge77KPgvuX9ZF-3">
          <mxGeometry relative="1" as="geometry" />
        </mxCell>
        <mxCell id="0Zv-nmKge77KPgvuX9ZF-1" value="Начало" style="ellipse;whiteSpace=wrap;html=1;" vertex="1" parent="1">
          <mxGeometry x="350" y="40" width="160" height="40" as="geometry" />
        </mxCell>
        <mxCell id="0Zv-nmKge77KPgvuX9ZF-6" value="" style="edgeStyle=orthogonalEdgeStyle;rounded=0;orthogonalLoop=1;jettySize=auto;html=1;" edge="1" parent="1" source="0Zv-nmKge77KPgvuX9ZF-3" target="0Zv-nmKge77KPgvuX9ZF-5">
          <mxGeometry relative="1" as="geometry" />
        </mxCell>
        <mxCell id="0Zv-nmKge77KPgvuX9ZF-3" value="&lt;div&gt;Вывод: &quot;1. Добавить&amp;nbsp;&lt;/div&gt;&lt;div&gt;в очередь&amp;nbsp;&lt;/div&gt;&lt;div&gt;(динамическая структура)&quot;&lt;/div&gt;" style="shape=parallelogram;perimeter=parallelogramPerimeter;whiteSpace=wrap;html=1;fixedSize=1;" vertex="1" parent="1">
          <mxGeometry x="340" y="110" width="180" height="60" as="geometry" />
        </mxCell>
        <mxCell id="0Zv-nmKge77KPgvuX9ZF-8" value="" style="edgeStyle=orthogonalEdgeStyle;rounded=0;orthogonalLoop=1;jettySize=auto;html=1;" edge="1" parent="1" source="0Zv-nmKge77KPgvuX9ZF-5" target="0Zv-nmKge77KPgvuX9ZF-7">
          <mxGeometry relative="1" as="geometry" />
        </mxCell>
        <mxCell id="0Zv-nmKge77KPgvuX9ZF-5" value="&lt;div&gt;Вывод: &quot;2. Удалить из&amp;nbsp;&lt;/div&gt;&lt;div&gt;очереди&lt;/div&gt;&lt;div&gt;&amp;nbsp;(динамическая структура)&quot;&lt;/div&gt;" style="shape=parallelogram;perimeter=parallelogramPerimeter;whiteSpace=wrap;html=1;fixedSize=1;" vertex="1" parent="1">
          <mxGeometry x="340" y="200" width="180" height="60" as="geometry" />
        </mxCell>
        <mxCell id="0Zv-nmKge77KPgvuX9ZF-10" value="" style="edgeStyle=orthogonalEdgeStyle;rounded=0;orthogonalLoop=1;jettySize=auto;html=1;" edge="1" parent="1" source="0Zv-nmKge77KPgvuX9ZF-7" target="0Zv-nmKge77KPgvuX9ZF-9">
          <mxGeometry relative="1" as="geometry" />
        </mxCell>
        <mxCell id="0Zv-nmKge77KPgvuX9ZF-7" value="&lt;div&gt;Вывод: &quot;3. Добавить&amp;nbsp;&lt;/div&gt;&lt;div&gt;в очередь&lt;/div&gt;&lt;div&gt;&amp;nbsp;(статическая структура)&quot;&lt;/div&gt;" style="shape=parallelogram;perimeter=parallelogramPerimeter;whiteSpace=wrap;html=1;fixedSize=1;" vertex="1" parent="1">
          <mxGeometry x="340" y="290" width="180" height="60" as="geometry" />
        </mxCell>
        <mxCell id="0Zv-nmKge77KPgvuX9ZF-12" value="" style="edgeStyle=orthogonalEdgeStyle;rounded=0;orthogonalLoop=1;jettySize=auto;html=1;" edge="1" parent="1" source="0Zv-nmKge77KPgvuX9ZF-9" target="0Zv-nmKge77KPgvuX9ZF-11">
          <mxGeometry relative="1" as="geometry" />
        </mxCell>
        <mxCell id="0Zv-nmKge77KPgvuX9ZF-9" value="&lt;div&gt;Вывод: &quot;4. Удалить&amp;nbsp;&lt;/div&gt;&lt;div&gt;из очереди&amp;nbsp;&lt;/div&gt;&lt;div&gt;(статическая структура)&quot;&lt;/div&gt;" style="shape=parallelogram;perimeter=parallelogramPerimeter;whiteSpace=wrap;html=1;fixedSize=1;" vertex="1" parent="1">
          <mxGeometry x="340" y="390" width="180" height="60" as="geometry" />
        </mxCell>
        <mxCell id="0Zv-nmKge77KPgvuX9ZF-14" value="" style="edgeStyle=orthogonalEdgeStyle;rounded=0;orthogonalLoop=1;jettySize=auto;html=1;" edge="1" parent="1" source="0Zv-nmKge77KPgvuX9ZF-11" target="0Zv-nmKge77KPgvuX9ZF-13">
          <mxGeometry relative="1" as="geometry" />
        </mxCell>
        <mxCell id="0Zv-nmKge77KPgvuX9ZF-11" value="Вывод: &quot;5. Выход&quot;" style="shape=parallelogram;perimeter=parallelogramPerimeter;whiteSpace=wrap;html=1;fixedSize=1;" vertex="1" parent="1">
          <mxGeometry x="340" y="480" width="180" height="60" as="geometry" />
        </mxCell>
        <mxCell id="0Zv-nmKge77KPgvuX9ZF-16" value="" style="edgeStyle=orthogonalEdgeStyle;rounded=0;orthogonalLoop=1;jettySize=auto;html=1;" edge="1" parent="1" source="0Zv-nmKge77KPgvuX9ZF-13" target="0Zv-nmKge77KPgvuX9ZF-15">
          <mxGeometry relative="1" as="geometry" />
        </mxCell>
        <mxCell id="0Zv-nmKge77KPgvuX9ZF-13" value="&lt;div&gt;Вывод: &quot;Введите число&amp;nbsp;&lt;/div&gt;&lt;div&gt;(1-5): &quot;&lt;/div&gt;" style="shape=parallelogram;perimeter=parallelogramPerimeter;whiteSpace=wrap;html=1;fixedSize=1;" vertex="1" parent="1">
          <mxGeometry x="340" y="570" width="180" height="60" as="geometry" />
        </mxCell>
        <mxCell id="0Zv-nmKge77KPgvuX9ZF-18" value="" style="edgeStyle=orthogonalEdgeStyle;rounded=0;orthogonalLoop=1;jettySize=auto;html=1;" edge="1" parent="1" source="0Zv-nmKge77KPgvuX9ZF-15" target="0Zv-nmKge77KPgvuX9ZF-17">
          <mxGeometry relative="1" as="geometry" />
        </mxCell>
        <mxCell id="0Zv-nmKge77KPgvuX9ZF-15" value="Ввод choice" style="shape=parallelogram;perimeter=parallelogramPerimeter;whiteSpace=wrap;html=1;fixedSize=1;" vertex="1" parent="1">
          <mxGeometry x="340" y="660" width="180" height="60" as="geometry" />
        </mxCell>
        <mxCell id="0Zv-nmKge77KPgvuX9ZF-20" style="edgeStyle=orthogonalEdgeStyle;rounded=0;orthogonalLoop=1;jettySize=auto;html=1;entryX=0.5;entryY=0;entryDx=0;entryDy=0;" edge="1" parent="1" source="0Zv-nmKge77KPgvuX9ZF-17" target="0Zv-nmKge77KPgvuX9ZF-19">
          <mxGeometry relative="1" as="geometry">
            <Array as="points">
              <mxPoint x="430" y="870" />
            </Array>
          </mxGeometry>
        </mxCell>
        <mxCell id="0Zv-nmKge77KPgvuX9ZF-27" style="edgeStyle=orthogonalEdgeStyle;rounded=0;orthogonalLoop=1;jettySize=auto;html=1;entryX=0.5;entryY=0;entryDx=0;entryDy=0;" edge="1" parent="1" source="0Zv-nmKge77KPgvuX9ZF-17" target="0Zv-nmKge77KPgvuX9ZF-26">
          <mxGeometry relative="1" as="geometry">
            <Array as="points">
              <mxPoint x="430" y="870" />
              <mxPoint x="270" y="870" />
            </Array>
          </mxGeometry>
        </mxCell>
        <mxCell id="0Zv-nmKge77KPgvuX9ZF-32" style="edgeStyle=orthogonalEdgeStyle;rounded=0;orthogonalLoop=1;jettySize=auto;html=1;entryX=0.5;entryY=0;entryDx=0;entryDy=0;" edge="1" parent="1" source="0Zv-nmKge77KPgvuX9ZF-17" target="0Zv-nmKge77KPgvuX9ZF-31">
          <mxGeometry relative="1" as="geometry">
            <Array as="points">
              <mxPoint x="430" y="870" />
              <mxPoint x="470" y="870" />
            </Array>
          </mxGeometry>
        </mxCell>
        <mxCell id="0Zv-nmKge77KPgvuX9ZF-41" style="edgeStyle=orthogonalEdgeStyle;rounded=0;orthogonalLoop=1;jettySize=auto;html=1;entryX=0.5;entryY=0;entryDx=0;entryDy=0;" edge="1" parent="1" source="0Zv-nmKge77KPgvuX9ZF-17" target="0Zv-nmKge77KPgvuX9ZF-38">
          <mxGeometry relative="1" as="geometry">
            <Array as="points">
              <mxPoint x="430" y="870" />
              <mxPoint x="670" y="870" />
            </Array>
          </mxGeometry>
        </mxCell>
        <mxCell id="0Zv-nmKge77KPgvuX9ZF-47" style="edgeStyle=orthogonalEdgeStyle;rounded=0;orthogonalLoop=1;jettySize=auto;html=1;" edge="1" parent="1" source="0Zv-nmKge77KPgvuX9ZF-17" target="0Zv-nmKge77KPgvuX9ZF-46">
          <mxGeometry relative="1" as="geometry" />
        </mxCell>
        <mxCell id="0Zv-nmKge77KPgvuX9ZF-51" style="edgeStyle=orthogonalEdgeStyle;rounded=0;orthogonalLoop=1;jettySize=auto;html=1;entryX=0.5;entryY=0;entryDx=0;entryDy=0;" edge="1" parent="1" source="0Zv-nmKge77KPgvuX9ZF-17" target="0Zv-nmKge77KPgvuX9ZF-50">
          <mxGeometry relative="1" as="geometry">
            <Array as="points">
              <mxPoint x="430" y="870" />
              <mxPoint x="880" y="870" />
              <mxPoint x="880" y="920" />
            </Array>
          </mxGeometry>
        </mxCell>
        <mxCell id="0Zv-nmKge77KPgvuX9ZF-17" value="Выбор действия" style="rhombus;whiteSpace=wrap;html=1;" vertex="1" parent="1">
          <mxGeometry x="350" y="760" width="160" height="80" as="geometry" />
        </mxCell>
        <mxCell id="0Zv-nmKge77KPgvuX9ZF-23" value="" style="edgeStyle=orthogonalEdgeStyle;rounded=0;orthogonalLoop=1;jettySize=auto;html=1;" edge="1" parent="1" source="0Zv-nmKge77KPgvuX9ZF-19" target="0Zv-nmKge77KPgvuX9ZF-22">
          <mxGeometry relative="1" as="geometry" />
        </mxCell>
        <mxCell id="0Zv-nmKge77KPgvuX9ZF-19" value="Вывод &quot;Введите значение:&quot;&amp;nbsp;" style="shape=parallelogram;perimeter=parallelogramPerimeter;whiteSpace=wrap;html=1;fixedSize=1;" vertex="1" parent="1">
          <mxGeometry x="-30" y="910" width="180" height="60" as="geometry" />
        </mxCell>
        <mxCell id="0Zv-nmKge77KPgvuX9ZF-21" value="1" style="text;html=1;align=center;verticalAlign=middle;whiteSpace=wrap;rounded=0;" vertex="1" parent="1">
          <mxGeometry x="30" y="840" width="60" height="30" as="geometry" />
        </mxCell>
        <mxCell id="0Zv-nmKge77KPgvuX9ZF-25" value="" style="edgeStyle=orthogonalEdgeStyle;rounded=0;orthogonalLoop=1;jettySize=auto;html=1;" edge="1" parent="1" source="0Zv-nmKge77KPgvuX9ZF-22" target="0Zv-nmKge77KPgvuX9ZF-24">
          <mxGeometry relative="1" as="geometry" />
        </mxCell>
        <mxCell id="0Zv-nmKge77KPgvuX9ZF-22" value="Ввод&amp;nbsp;value" style="shape=parallelogram;perimeter=parallelogramPerimeter;whiteSpace=wrap;html=1;fixedSize=1;" vertex="1" parent="1">
          <mxGeometry x="-30" y="1010" width="180" height="60" as="geometry" />
        </mxCell>
        <mxCell id="0Zv-nmKge77KPgvuX9ZF-24" value="PushTail(dynamicQueue, value);" style="shape=process;whiteSpace=wrap;html=1;backgroundOutline=1;" vertex="1" parent="1">
          <mxGeometry x="-30" y="1109" width="180" height="60" as="geometry" />
        </mxCell>
        <mxCell id="0Zv-nmKge77KPgvuX9ZF-30" value="" style="edgeStyle=orthogonalEdgeStyle;rounded=0;orthogonalLoop=1;jettySize=auto;html=1;" edge="1" parent="1" source="0Zv-nmKge77KPgvuX9ZF-26" target="0Zv-nmKge77KPgvuX9ZF-29">
          <mxGeometry relative="1" as="geometry" />
        </mxCell>
        <mxCell id="0Zv-nmKge77KPgvuX9ZF-26" value="Вывод &quot;Удалённое&amp;nbsp;&lt;div&gt;значение:&quot;&amp;nbsp;&lt;/div&gt;" style="shape=parallelogram;perimeter=parallelogramPerimeter;whiteSpace=wrap;html=1;fixedSize=1;" vertex="1" parent="1">
          <mxGeometry x="180" y="910" width="180" height="60" as="geometry" />
        </mxCell>
        <mxCell id="0Zv-nmKge77KPgvuX9ZF-28" value="2" style="text;html=1;align=center;verticalAlign=middle;whiteSpace=wrap;rounded=0;" vertex="1" parent="1">
          <mxGeometry x="240" y="840" width="60" height="30" as="geometry" />
        </mxCell>
        <mxCell id="0Zv-nmKge77KPgvuX9ZF-29" value="Pop(dynamicQueue)" style="shape=process;whiteSpace=wrap;html=1;backgroundOutline=1;" vertex="1" parent="1">
          <mxGeometry x="180" y="1000" width="180" height="60" as="geometry" />
        </mxCell>
        <mxCell id="0Zv-nmKge77KPgvuX9ZF-35" value="" style="edgeStyle=orthogonalEdgeStyle;rounded=0;orthogonalLoop=1;jettySize=auto;html=1;" edge="1" parent="1" source="0Zv-nmKge77KPgvuX9ZF-31" target="0Zv-nmKge77KPgvuX9ZF-34">
          <mxGeometry relative="1" as="geometry" />
        </mxCell>
        <mxCell id="0Zv-nmKge77KPgvuX9ZF-31" value="Вывод &quot;Введите значение:&lt;span style=&quot;background-color: initial;&quot;&gt;&quot;&amp;nbsp;&lt;/span&gt;" style="shape=parallelogram;perimeter=parallelogramPerimeter;whiteSpace=wrap;html=1;fixedSize=1;" vertex="1" parent="1">
          <mxGeometry x="380" y="910" width="180" height="60" as="geometry" />
        </mxCell>
        <mxCell id="0Zv-nmKge77KPgvuX9ZF-33" value="3" style="text;html=1;align=center;verticalAlign=middle;whiteSpace=wrap;rounded=0;" vertex="1" parent="1">
          <mxGeometry x="440" y="840" width="60" height="30" as="geometry" />
        </mxCell>
        <mxCell id="0Zv-nmKge77KPgvuX9ZF-37" value="" style="edgeStyle=orthogonalEdgeStyle;rounded=0;orthogonalLoop=1;jettySize=auto;html=1;" edge="1" parent="1" source="0Zv-nmKge77KPgvuX9ZF-34" target="0Zv-nmKge77KPgvuX9ZF-36">
          <mxGeometry relative="1" as="geometry" />
        </mxCell>
        <mxCell id="0Zv-nmKge77KPgvuX9ZF-34" value="Ввод&amp;nbsp;value" style="shape=parallelogram;perimeter=parallelogramPerimeter;whiteSpace=wrap;html=1;fixedSize=1;" vertex="1" parent="1">
          <mxGeometry x="380" y="1000" width="180" height="60" as="geometry" />
        </mxCell>
        <mxCell id="0Zv-nmKge77KPgvuX9ZF-36" value="Enqueue(value)" style="shape=process;whiteSpace=wrap;html=1;backgroundOutline=1;" vertex="1" parent="1">
          <mxGeometry x="380" y="1090" width="180" height="60" as="geometry" />
        </mxCell>
        <mxCell id="0Zv-nmKge77KPgvuX9ZF-40" value="" style="edgeStyle=orthogonalEdgeStyle;rounded=0;orthogonalLoop=1;jettySize=auto;html=1;" edge="1" parent="1" source="0Zv-nmKge77KPgvuX9ZF-38" target="0Zv-nmKge77KPgvuX9ZF-39">
          <mxGeometry relative="1" as="geometry" />
        </mxCell>
        <mxCell id="0Zv-nmKge77KPgvuX9ZF-38" value="Вывод &quot;Удалённое&amp;nbsp;&lt;div&gt;значение:&quot;&amp;nbsp;&lt;/div&gt;" style="shape=parallelogram;perimeter=parallelogramPerimeter;whiteSpace=wrap;html=1;fixedSize=1;" vertex="1" parent="1">
          <mxGeometry x="580" y="910" width="180" height="60" as="geometry" />
        </mxCell>
        <mxCell id="0Zv-nmKge77KPgvuX9ZF-39" value="Dequeue" style="shape=process;whiteSpace=wrap;html=1;backgroundOutline=1;" vertex="1" parent="1">
          <mxGeometry x="580" y="1000" width="180" height="60" as="geometry" />
        </mxCell>
        <mxCell id="0Zv-nmKge77KPgvuX9ZF-42" value="4" style="text;html=1;align=center;verticalAlign=middle;whiteSpace=wrap;rounded=0;" vertex="1" parent="1">
          <mxGeometry x="640" y="840" width="60" height="30" as="geometry" />
        </mxCell>
        <mxCell id="0Zv-nmKge77KPgvuX9ZF-43" value="да" style="text;html=1;align=center;verticalAlign=middle;whiteSpace=wrap;rounded=0;" vertex="1" parent="1">
          <mxGeometry x="360" y="840" width="60" height="30" as="geometry" />
        </mxCell>
        <mxCell id="0Zv-nmKge77KPgvuX9ZF-44" value="Конец" style="ellipse;whiteSpace=wrap;html=1;" vertex="1" parent="1">
          <mxGeometry x="800" y="1010" width="160" height="40" as="geometry" />
        </mxCell>
        <mxCell id="0Zv-nmKge77KPgvuX9ZF-46" value="Вывод: Некорректное значение.&amp;nbsp;&lt;div&gt;Повторите попытку.&lt;/div&gt;" style="shape=parallelogram;perimeter=parallelogramPerimeter;whiteSpace=wrap;html=1;fixedSize=1;" vertex="1" parent="1">
          <mxGeometry x="560" y="770" width="180" height="60" as="geometry" />
        </mxCell>
        <mxCell id="0Zv-nmKge77KPgvuX9ZF-48" value="нет" style="text;html=1;align=center;verticalAlign=middle;whiteSpace=wrap;rounded=0;" vertex="1" parent="1">
          <mxGeometry x="510" y="770" width="60" height="30" as="geometry" />
        </mxCell>
        <mxCell id="0Zv-nmKge77KPgvuX9ZF-49" value="5" style="text;html=1;align=center;verticalAlign=middle;whiteSpace=wrap;rounded=0;" vertex="1" parent="1">
          <mxGeometry x="850" y="840" width="60" height="30" as="geometry" />
        </mxCell>
        <mxCell id="0Zv-nmKge77KPgvuX9ZF-52" style="edgeStyle=orthogonalEdgeStyle;rounded=0;orthogonalLoop=1;jettySize=auto;html=1;entryX=0.5;entryY=0;entryDx=0;entryDy=0;" edge="1" parent="1" source="0Zv-nmKge77KPgvuX9ZF-50" target="0Zv-nmKge77KPgvuX9ZF-44">
          <mxGeometry relative="1" as="geometry" />
        </mxCell>
        <mxCell id="0Zv-nmKge77KPgvuX9ZF-50" value="Вывод: &quot;Выход..&quot;" style="shape=parallelogram;perimeter=parallelogramPerimeter;whiteSpace=wrap;html=1;fixedSize=1;" vertex="1" parent="1">
          <mxGeometry x="790" y="920" width="180" height="60" as="geometry" />
        </mxCell>
      </root>
    </mxGraphModel>
  </diagram>
</mxfile>
